<svg xmlns="http://www.w3.org/2000/svg" width="128" height="128"><path d="M82.984 84.25c13.147-9.234 23.163-5.791 20.346 7.043s-5.321 21.86-5.321 21.86c3.443.626 5.8 3.234 5.8 8.347H85.125c2.375-11.25.75-23.625.75-23.625zM45.016 84.25c-13.147-9.234-23.163-5.791-20.346 7.043s5.321 21.86 5.321 21.86c-3.443.626-5.8 3.234-5.8 8.347h18.684c-2.375-11.25-.75-23.625-.75-23.625z" fill="#a9ce24"/><path d="M83.048 115.063C78.441 117.308 72.215 118.5 64 118.5s-14.441-1.192-19.048-3.437C26.542 106.145 33.768 80.6 41.7 48h44.61c7.922 32.6 15.148 58.145-3.262 67.063z" fill="#bae543"/><path d="M83.336 110.136a41.461 41.461 0 0 1-.288 4.927C78.441 117.308 72.215 118.5 64 118.5s-14.441-1.192-19.048-3.437a41.461 41.461 0 0 1-.288-4.927c0-16.08 8.663-29.115 19.336-29.115s19.336 13.035 19.336 29.115z" fill="#eaeaf0"/><ellipse cx="64" cy="40.5" rx="36.833" ry="26.333" fill="#a9ce24"/><circle cx="45.875" cy="15.346" r="8.846" fill="#bae543"/><circle cx="45.875" cy="15.346" r="3" fill="#eaeaf0"/><circle cx="82.125" cy="15.346" r="8.846" fill="#bae543"/><circle cx="82.125" cy="15.346" r="3" fill="#eaeaf0"/><g fill="#072130"><path d="M100.146 111.949c.849-3.2 2.792-10.72 4.893-20.283 1.441-6.552-.362-10.052-2.128-11.834-1.925-1.942-4.776-2.785-8.14-2.457-.578-3.24-1.268-6.527-2-9.811a1.75 1.75 0 0 0-3.416.76c4.9 22.021 5.733 36.521-4.321 43.547.023-.577.051-1.153.051-1.735 0-17.02-9.459-30.865-21.086-30.865s-21.084 13.845-21.084 30.865c0 .581.027 1.157.05 1.734-8.385-5.9-9.073-17.073-6.6-32.053a1.7 1.7 0 0 0 .055-.329c.88-5.238 2.131-10.932 3.58-17.029a48.081 48.081 0 0 0 24 6.121c21.273 0 38.58-12.6 38.58-28.08 0-7.475-4.09-14.633-11.286-19.867A10.587 10.587 0 1 0 71.8 13a53.633 53.633 0 0 0-15.6 0 10.59 10.59 0 1 0-19.49 7.639 32.338 32.338 0 0 0-4.739 4.173 1.75 1.75 0 1 0 2.569 2.376 29 29 0 0 1 4.406-3.843A10.578 10.578 0 0 0 56.4 16.516a50.008 50.008 0 0 1 15.2 0 10.575 10.575 0 0 0 17.46 6.824c6.384 4.579 10.02 10.768 10.02 17.16 0 13.554-15.737 24.58-35.08 24.58-9.3 0-17.751-2.551-24.034-6.7a1.7 1.7 0 0 0-.32-.213C33.04 53.694 28.92 47.43 28.92 40.5a17.41 17.41 0 0 1 .122-2.052 1.75 1.75 0 0 0-3.476-.412 20.953 20.953 0 0 0-.146 2.464c0 7.794 4.388 14.854 11.458 19.947-1.421 5.952-2.687 11.621-3.615 16.932-3.381-.337-6.243.5-8.174 2.453-1.766 1.782-3.569 5.282-2.128 11.834.659 3 1.352 6.027 2.061 9a1.752 1.752 0 0 0 1.7 1.345 1.78 1.78 0 0 0 .407-.048 1.75 1.75 0 0 0 1.3-2.108c-.7-2.957-1.393-5.965-2.048-8.944-.86-3.911-.435-6.973 1.2-8.618a6.267 6.267 0 0 1 5.119-1.462c-2.22 14.848-1.259 26.561 7.389 33.273.153 1.967.369 3.866.669 5.646h-14.7c.4-2.8 1.823-4.434 4.25-4.878a1.752 1.752 0 0 0 1.372-2.189c-.007-.022-.616-2.227-1.556-5.932a1.75 1.75 0 1 0-3.393.861c.466 1.835.852 3.309 1.126 4.337-3.466 1.392-5.414 4.775-5.414 9.551a1.75 1.75 0 0 0 1.75 1.75H42.87a1.749 1.749 0 0 0 1.712-2.113 52.905 52.905 0 0 1-.756-4.693c.089.044.171.093.261.137a1.872 1.872 0 0 0 .168.083c4.978 2.411 11.436 3.586 19.745 3.586 8.269 0 14.7-1.165 19.665-3.551l.04-.017c.035-.017.072-.031.107-.047.124-.061.238-.128.36-.19a55.041 55.041 0 0 1-.755 4.7 1.748 1.748 0 0 0 1.713 2.108h18.68a1.75 1.75 0 0 0 1.75-1.75c0-4.78-1.948-8.163-5.414-9.554zM45.875 22.442a7.1 7.1 0 1 1 7.1-7.1 7.1 7.1 0 0 1-7.1 7.1zm29.154-7.1a7.1 7.1 0 1 1 7.1 7.1 7.1 7.1 0 0 1-7.1-7.096zM46.6 113.875a40.359 40.359 0 0 1-.188-3.739C46.415 95.047 54.3 82.771 64 82.771s17.586 12.276 17.586 27.365c0 1.266-.074 2.514-.189 3.739C77.006 115.8 71.312 116.75 64 116.75s-13-.95-17.4-2.875zm40.64 5.875c.3-1.8.52-3.7.673-5.652 9.025-7.056 9.523-19.545 7.432-33.272a6.247 6.247 0 0 1 5.08 1.469c1.632 1.646 2.056 4.708 1.2 8.62-2.776 12.64-5.272 21.678-5.3 21.768a1.75 1.75 0 0 0 1.371 2.189c2.428.444 3.853 2.082 4.25 4.878z"/><path d="M40.274 72.726c-.618 2.978-1.109 5.6-1.5 8.015a1.751 1.751 0 0 0 1.448 2.008 1.691 1.691 0 0 0 .282.022 1.751 1.751 0 0 0 1.725-1.471c.383-2.364.864-4.938 1.472-7.865a1.75 1.75 0 1 0-3.427-.711zM28.081 34.416a1.733 1.733 0 0 0 .685.141 1.752 1.752 0 0 0 1.611-1.064 19.968 19.968 0 0 1 1.017-2.047 1.75 1.75 0 0 0-3.043-1.73 23.867 23.867 0 0 0-1.194 2.4 1.749 1.749 0 0 0 .924 2.3zM45.875 10.6a4.75 4.75 0 1 0 4.75 4.75 4.756 4.756 0 0 0-4.75-4.75zm0 6a1.25 1.25 0 1 1 1.25-1.25 1.252 1.252 0 0 1-1.25 1.25zM82.125 10.6a4.75 4.75 0 1 0 4.75 4.75 4.756 4.756 0 0 0-4.75-4.75zm0 6a1.25 1.25 0 1 1 1.25-1.25 1.252 1.252 0 0 1-1.25 1.25zM91.785 42.8a1.75 1.75 0 0 0-2.344-2.6A36.92 36.92 0 0 1 64 49.917 36.924 36.924 0 0 1 38.558 40.2a1.75 1.75 0 1 0-2.343 2.6A40.322 40.322 0 0 0 64 53.417 40.324 40.324 0 0 0 91.785 42.8z"/></g></svg>